<svg xmlns:inkscape="http://www.inkscape.org/namespaces/inkscape" xmlns:sodipodi="http://sodipodi.sourceforge.net/DTD/sodipodi-0.dtd" xmlns="http://www.w3.org/2000/svg" 
xmlns:svg="http://www.w3.org/2000/svg" xmlns:rdf="http://www.w3.org/1999/02/22-rdf-syntax-ns#" xmlns:cc="http://creativecommons.org/ns#" xmlns:dc="http://purl.org/dc/elements/1.1/" 
version="1.1" viewBox="0 0 13 17" xml:space="preserve" x="0px" y="0px">
    <g>
        <g>
            <path style="color:#000000;" d="m 6.3489665,0.26458333 c -0.00532,0 -0.010692,3.9851e-4 -0.01602,5.1677e-4 H 2.3796997 c -0.5107374,0 -1.0578165,0.54811272 -1.0578166,1.0588501 
            V 11.376567 c 0,0.510737 0.5470791,1.058333 1.0578166,1.058333 H 6.347933 c 0.00532,0 0.010692,-3.99e-4 0.01602,-5.17e-4 h 3.690214 c 0.510737,0 1.057816,-0.547596 1.057816,-1.058333 V 1.3234334 
            c 0,-0.51073726 -0.547079,-1.05885007 -1.057816,-1.05885007 z m 0.638204,0.26354981 h 3.0669965 c 0.368735,0 0.792199,0.42656486 0.792199,0.79530026 V 11.37605 
            c 0,0.368735 -0.423464,0.794782 -0.792199,0.794783 H 7.9359498 6.988204 6.3593018 6.3489665 6.3484498 c -0.3686145,0 -0.791683,-0.426219 -0.791683,-0.794783 V 1.3234334 
            c 0,-0.36495152 0.4148179,-0.78617444 0.7808309,-0.7947835 h 0.010335 c 0.00568,0 0.011353,3.1642e-4 0.017053,5.1677e-4 H 6.988204 C 6.9878337,0.52885218 6.987541,0.5284472 6.987174,0.52813267 Z 
            M 2.3796997,0.5286499 H 5.7086955 C 5.4653017,0.73540888 5.29115,1.0353644 5.29115,1.3234334 V 11.37605 c 0,0.288509 0.1746025,0.588583 0.4185791,0.7953 H 2.3796997 
            C 2.0109644,12.17135 1.5875,11.745302 1.5875,11.376567 V 1.3239502 c 0,-0.36873535 0.4234644,-0.7953003 0.7921997,-0.7953003 z" fill="#ffffff" stroke="#ffffff" stroke-width="0.2" stroke-linecap="round" stroke-linejoin="round"/>
            <path style="color:#000000;" d="m 7.5394664,0.79361973 c -0.1454144,5.001e-4 -0.2631719,0.11825761 -0.263672,0.26367197 -5.763e-4,0.1461765 0.1174952,0.2651225 0.263672,0.265625 h 
            1.324218 C 9.0098611,1.3224142 9.1279326,1.2034682 9.1273564,1.0572917 9.1268562,0.91187734 9.0090987,0.79411983 8.8636844,0.79361973 Z" fill="#ffffff" stroke-linecap="round"/>
            <path style="" d="m 2.7782553,1.1908853 c 0.293158,0 0.529166,0.2360083 0.529166,0.5291666 0,0.2931583 -0.236008,0.5291666 -0.529166,0.5291666 -0.293158,0 -0.529167,-0.2360083 
            -0.529167,-0.5291666 0,-0.2931583 0.236009,-0.5291666 0.529167,-0.5291666 z" fill="#ffffff" stroke-linecap="round" stroke-linejoin="round"/>
            <path style="" d="m 4.1001297,1.8523436 c 0.293159,0 0.529167,0.2360083 0.529167,0.5291667 0,0.2931583 -0.236008,0.5291666 -0.529167,0.5291666 -0.2931584,0 -0.5291664,-0.2360083 
            -0.5291664,-0.5291666 0,-0.2931584 0.236008,-0.5291667 0.5291664,-0.5291667 z" fill="#ffffff" stroke-linecap="round" stroke-linejoin="round"/>
            <path style="color:#000000;" d="m 2.7778643,0.79375 c -0.510738,0 -0.925781,0.4150429 -0.925781,0.9257811 v 1.3242188 c 0,0.5107382 0.415043,0.9257812 0.925781,0.9257812 
            h 1.3222664 c 0.510738,0 0.925781,-0.4150428 0.925781,-0.9257812 V 1.7195311 c 0,-0.5107384 -0.415043,-0.9257811 -0.925781,-0.9257811 z m 0,0.2656249 h 1.3222664 c 0.368735,0 
            0.662109,0.2914202 0.662109,0.6601562 v 1.3242188 c 0,0.368736 -0.293374,0.6601562 -0.662109,0.6601562 H 2.7778643 c -0.368736,0 -0.660156,-0.29142 -0.660156,-0.6601562 V 1.7195311 
            c 0,-0.3687362 0.29142,-0.6601562 0.660156,-0.6601562 z" fill="#ffffff" stroke-linecap="round" stroke-linejoin="round"/>
            <path style="" d="m 2.7782553,2.5138021 c 0.293158,0 0.529166,0.2360083 0.529166,0.5291667 0,0.2931583 -0.236008,0.5291666 -0.529166,0.5291666 -0.293158,0 -0.529167,-0.2360083 
            -0.529167,-0.5291666 0,-0.2931584 0.236009,-0.5291667 0.529167,-0.5291667 z" fill="#ffffff" stroke-linecap="round" stroke-linejoin="round"/>
            <path style="" d="m 4.1001307,3.0429688 c 0.146579,0 0.264583,0.1180041 0.264583,0.2645833 0,0.1465791 -0.118004,0.2645832 -0.264583,0.2645832 -0.1465794,0 -0.2645844,-0.1180041 
            -0.2645844,-0.2645832 0,-0.1465792 0.118005,-0.2645833 0.2645844,-0.2645833 z" fill="#ffffff"  stroke-linecap="round" stroke-linejoin="round"/>
        </g>
    </g>
</svg>